<svg xmlns="http://www.w3.org/2000/svg" width="28" height="34" viewBox="0 0 28 34">
  <!-- Planchette body: point at top-left, heart-shaped base -->
  <path d="M3 2 L14 10 Q22 14 24 20 Q26 26 22 30 Q18 33 14 32 Q8 31 5 28 Q1 24 2 18 Q2 12 3 2 Z" fill="#c9a227" stroke="#503a0c" stroke-width="1.2" stroke-linejoin="round"/>
  <!-- Inner border detail -->
  <path d="M5 6 L14 12 Q20 15 22 20 Q23 25 20 28 Q17 30 14 29 Q9 28 7 26 Q4 22 4 18 Q4 12 5 6 Z" fill="none" stroke="#dfc040" stroke-width="0.6"/>
  <!-- Window ring -->
  <circle cx="14" cy="21" r="4.5" fill="#352a10" stroke="#503a0c" stroke-width="1"/>
  <!-- Window lens -->
  <circle cx="14" cy="21" r="2.5" fill="#1a1508" stroke="#806018" stroke-width="0.6"/>
  <!-- Lens highlight -->
  <circle cx="13" cy="20" r="0.8" fill="#dfc040" opacity="0.5"/>
</svg>
